<?xml version="1.0" encoding="utf-8"?>
<!-- Generator: Adobe Illustrator 19.2.1, SVG Export Plug-In . SVG Version: 6.00 Build 0)  -->
<svg version="1.1" id="Capa_1" xmlns="http://www.w3.org/2000/svg" xmlns:xlink="http://www.w3.org/1999/xlink" x="0px" y="0px"
	 viewBox="0 0 300 200" style="enable-background:new 0 0 300 200;" xml:space="preserve">
<style type="text/css">
	.st0{fill:#231F20;}
	.st1{fill:#DD075E;}
</style>
<g>
	<path class="st0" d="M94.1,153.4l2.9,0.3c-0.5,1.6-1.3,2.9-2.5,3.8c-1.2,0.9-2.8,1.4-4.7,1.4c-2.4,0-4.3-0.7-5.8-2.2
		c-1.4-1.4-2.1-3.5-2.1-6.1c0-2.7,0.7-4.8,2.2-6.3c1.4-1.5,3.3-2.2,5.6-2.2c2.2,0,4,0.7,5.4,2.2s2.1,3.5,2.1,6.1c0,0.2,0,0.4,0,0.7
		H84.7c0.1,1.8,0.6,3.1,1.5,4c0.9,0.9,2.1,1.4,3.5,1.4c1,0,1.9-0.3,2.6-0.8C93.1,155.4,93.7,154.5,94.1,153.4z M84.9,149h9.3
		c-0.1-1.3-0.5-2.4-1.1-3c-0.9-1-2.1-1.6-3.5-1.6c-1.3,0-2.4,0.4-3.3,1.2C85.5,146.5,85,147.6,84.9,149z"/>
	<path class="st0" d="M100.8,158.5v-22h3v19.4h11.3v2.6H100.8z"/>
	<path class="st0" d="M129.7,153.4l2.9,0.3c-0.5,1.6-1.3,2.9-2.5,3.8c-1.2,0.9-2.8,1.4-4.7,1.4c-2.4,0-4.3-0.7-5.8-2.2
		c-1.4-1.4-2.1-3.5-2.1-6.1c0-2.7,0.7-4.8,2.2-6.3c1.4-1.5,3.3-2.2,5.6-2.2c2.2,0,4,0.7,5.4,2.2s2.1,3.5,2.1,6.1c0,0.2,0,0.4,0,0.7
		h-12.4c0.1,1.8,0.6,3.1,1.5,4c0.9,0.9,2.1,1.4,3.5,1.4c1,0,1.9-0.3,2.6-0.8C128.7,155.4,129.3,154.5,129.7,153.4z M120.5,149h9.3
		c-0.1-1.3-0.5-2.4-1.1-3c-0.9-1-2.1-1.6-3.5-1.6c-1.3,0-2.4,0.4-3.3,1.2C121,146.5,120.6,147.6,120.5,149z"/>
	<path class="st0" d="M136.1,158.5v-16h2.5v2.4c0.6-1.1,1.2-1.9,1.8-2.2c0.5-0.4,1.1-0.5,1.8-0.5c0.9,0,1.9,0.3,2.9,0.9l-1,2.5
		c-0.7-0.4-1.4-0.6-2.1-0.6c-0.6,0-1.2,0.2-1.7,0.5c-0.5,0.4-0.8,0.8-1,1.5c-0.3,1-0.5,2-0.5,3.2v8.4H136.1z"/>
	<path class="st0" d="M146.8,158.5v-16h2.5v2.3c1.2-1.8,3-2.6,5.3-2.6c1,0,1.9,0.2,2.8,0.5s1.5,0.8,1.9,1.4c0.4,0.6,0.7,1.2,0.9,2
		c0.1,0.5,0.2,1.4,0.2,2.6v9.8h-2.8v-9.7c0-1.1-0.1-1.9-0.3-2.5s-0.6-1-1.2-1.3c-0.6-0.3-1.2-0.5-2-0.5c-1.2,0-2.2,0.4-3.1,1.1
		c-0.9,0.7-1.3,2.1-1.3,4.2v8.7H146.8z"/>
	<path class="st0" d="M164.6,139.6v-3.1h2.8v3.1H164.6z M164.6,158.5v-16h2.8v16H164.6z"/>
	<path class="st0" d="M182.5,156.6c-1,0.9-2,1.5-3,1.8c-1,0.4-2,0.5-3.1,0.5c-1.8,0-3.2-0.4-4.2-1.3s-1.5-2-1.5-3.3
		c0-0.8,0.2-1.5,0.6-2.1c0.4-0.6,0.9-1.2,1.5-1.6c0.6-0.4,1.3-0.7,2-0.9c0.6-0.1,1.4-0.3,2.5-0.4c2.3-0.3,3.9-0.6,5-0.9
		c0-0.4,0-0.6,0-0.7c0-1.1-0.3-1.9-0.8-2.3c-0.7-0.6-1.8-0.9-3.2-0.9c-1.3,0-2.3,0.2-2.9,0.7c-0.6,0.4-1.1,1.2-1.4,2.4l-2.7-0.4
		c0.2-1.1,0.7-2,1.2-2.7c0.6-0.7,1.4-1.2,2.5-1.6s2.3-0.6,3.8-0.6c1.4,0,2.6,0.2,3.5,0.5c0.9,0.3,1.5,0.7,2,1.2
		c0.4,0.5,0.7,1.1,0.9,1.8c0.1,0.5,0.1,1.3,0.1,2.5v3.6c0,2.5,0.1,4.1,0.2,4.8c0.1,0.7,0.4,1.3,0.7,1.9H183
		C182.8,158,182.6,157.3,182.5,156.6z M182.3,150.5c-1,0.4-2.5,0.7-4.6,1c-1.2,0.2-2,0.3-2.5,0.5c-0.5,0.2-0.8,0.5-1.1,0.9
		s-0.4,0.8-0.4,1.3c0,0.7,0.3,1.3,0.9,1.8c0.6,0.5,1.4,0.7,2.5,0.7c1.1,0,2-0.2,2.9-0.7c0.8-0.5,1.5-1.1,1.9-1.9
		c0.3-0.6,0.5-1.5,0.5-2.7V150.5z"/>
	<path class="st0" d="M189.5,158.5v-16h2.5v2.2c0.5-0.8,1.2-1.4,2.1-1.9c0.9-0.5,1.8-0.7,3-0.7c1.2,0,2.2,0.2,3,0.7
		c0.8,0.5,1.3,1.2,1.7,2.1c1.3-1.9,3-2.8,5.1-2.8c1.6,0,2.9,0.4,3.8,1.3c0.9,0.9,1.3,2.2,1.3,4.1v11h-2.8v-10.1
		c0-1.1-0.1-1.9-0.3-2.3c-0.2-0.5-0.5-0.9-1-1.2s-1-0.4-1.7-0.4c-1.2,0-2.1,0.4-2.9,1.1s-1.2,1.9-1.2,3.6v9.3h-2.8v-10.4
		c0-1.2-0.2-2.1-0.7-2.7c-0.5-0.6-1.2-0.9-2.2-0.9c-0.8,0-1.5,0.2-2.2,0.6c-0.7,0.4-1.2,1-1.5,1.8c-0.3,0.8-0.5,1.9-0.5,3.3v8.3
		H189.5z"/>
</g>
<g id="XMLID_87_">
	<path id="XMLID_121_" class="st0" d="M199.1,130.2c-1.8,0-3.3-1.5-3.3-3.3c0-1.8,1.5-3.3,3.3-3.3c5.3,0,9.6-4.3,9.6-9.6V54
		c0-5.3-4.3-9.6-9.6-9.6h-21c-3.2,0-5.9-2.6-5.9-5.9v-0.9c0-2.4-1.9-4.3-4.3-4.3h-40c-2.4,0-4.3,1.9-4.3,4.3v0.9
		c0,3.2-2.6,5.9-5.9,5.9h-21c-5.3,0-9.6,4.3-9.6,9.6v60c0,5.3,4.3,9.6,9.6,9.6c1.8,0,3.3,1.5,3.3,3.3c0,1.8-1.5,3.3-3.3,3.3
		c-8.9,0-16.1-7.2-16.1-16.1V54c0-8.9,7.2-16.1,16.1-16.1h20.3v-0.3c0-6,4.9-10.9,10.9-10.9h40c6,0,10.9,4.9,10.9,10.9v0.3h20.3
		c8.9,0,16.1,7.2,16.1,16.1v60C215.3,122.9,208,130.2,199.1,130.2z"/>
</g>
<g id="XMLID_119_">
	<g>
		<path id="XMLID_9_" class="st1" d="M148,123.1c-20.2,0-36.6-16.4-36.6-36.6c0-1.8,1.5-3.3,3.3-3.3c1.8,0,3.3,1.5,3.3,3.3
			c0,16.6,13.5,30.1,30.1,30.1c16.6,0,30.1-13.5,30.1-30.1S164.5,56.4,148,56.4c-1.8,0-3.3-1.5-3.3-3.3c0-1.8,1.5-3.3,3.3-3.3
			c20.2,0,36.6,16.4,36.6,36.6S168.2,123.1,148,123.1z"/>
	</g>
</g>
<g>
	<path class="st1" d="M124.5,96.2V77.3h2.3v1.8c0.5-0.7,1.1-1.2,1.8-1.6c0.7-0.3,1.5-0.5,2.4-0.5c1.3,0,2.4,0.3,3.3,0.9
		s1.7,1.5,2.2,2.5c0.5,1.1,0.7,2.3,0.7,3.6c0,1.4-0.3,2.7-0.8,3.8c-0.5,1.1-1.3,2-2.3,2.6c-1,0.6-2.1,0.9-3.2,0.9
		c-0.8,0-1.6-0.2-2.2-0.5c-0.7-0.3-1.2-0.7-1.6-1.2v6.7H124.5z M126.8,84.2c0,1.8,0.4,3.1,1.1,3.9s1.7,1.3,2.8,1.3
		c1.1,0,2-0.4,2.8-1.3c0.8-0.9,1.2-2.2,1.2-4.1c0-1.7-0.4-3.1-1.2-3.9c-0.8-0.9-1.7-1.3-2.8-1.3c-1.1,0-2,0.5-2.8,1.4
		C127.2,81.1,126.8,82.5,126.8,84.2z"/>
	<path class="st1" d="M140.3,74.8v-2.7h2.5v2.7H140.3z M140.3,91V77.3h2.5V91H140.3z"/>
	<path class="st1" d="M156.1,86l2.4,0.3c-0.3,1.6-1,2.8-2,3.7c-1.1,0.9-2.4,1.3-4.1,1.3c-2,0-3.6-0.6-4.8-1.8s-1.8-3-1.8-5.3
		c0-1.5,0.3-2.8,0.8-3.9c0.5-1.1,1.3-1.9,2.4-2.5c1.1-0.6,2.2-0.8,3.5-0.8c1.6,0,2.9,0.4,3.9,1.1c1,0.8,1.7,1.8,1.9,3.2l-2.4,0.3
		c-0.2-0.9-0.6-1.6-1.2-2.1c-0.6-0.5-1.3-0.7-2.1-0.7c-1.3,0-2.3,0.4-3,1.3c-0.8,0.8-1.2,2.2-1.2,4c0,1.8,0.4,3.2,1.1,4
		c0.8,0.8,1.7,1.3,3,1.3c1,0,1.8-0.3,2.4-0.8C155.5,88,155.9,87.1,156.1,86z"/>
	<path class="st1" d="M159.7,86.9l2.5-0.4c0.1,0.9,0.5,1.6,1.2,2.1c0.6,0.5,1.5,0.7,2.6,0.7c1.1,0,2-0.2,2.5-0.7
		c0.6-0.4,0.8-0.9,0.8-1.5c0-0.5-0.2-0.9-0.7-1.2c-0.3-0.2-1.2-0.5-2.5-0.8c-1.8-0.4-3.1-0.8-3.8-1.1c-0.7-0.3-1.2-0.7-1.6-1.3
		c-0.4-0.6-0.5-1.2-0.5-1.8c0-0.6,0.1-1.2,0.4-1.7c0.3-0.5,0.7-1,1.2-1.3c0.4-0.3,0.9-0.5,1.6-0.7s1.4-0.3,2.1-0.3
		c1.1,0,2.2,0.2,3,0.5c0.9,0.3,1.5,0.7,1.9,1.3s0.7,1.2,0.9,2.1l-2.4,0.3c-0.1-0.7-0.4-1.3-1-1.6c-0.5-0.4-1.3-0.6-2.2-0.6
		c-1.1,0-2,0.2-2.4,0.5c-0.5,0.4-0.7,0.8-0.7,1.2c0,0.3,0.1,0.6,0.3,0.8c0.2,0.2,0.5,0.5,1,0.6c0.2,0.1,1,0.3,2.2,0.6
		c1.8,0.4,3,0.8,3.7,1.1c0.7,0.3,1.2,0.7,1.6,1.2c0.4,0.5,0.6,1.2,0.6,2c0,0.8-0.2,1.5-0.7,2.2c-0.5,0.7-1.2,1.2-2.1,1.6
		c-0.9,0.4-1.9,0.6-3.1,0.6c-1.9,0-3.4-0.4-4.4-1.1S159.9,88.3,159.7,86.9z"/>
</g>
</svg>
